<svg width="127" height="17" viewBox="0 0 127 17" fill="none" xmlns="http://www.w3.org/2000/svg">
<path d="M13.1326 12.697H5.79875L4.40028 16.0626H0.660156L7.70133 0.334961H11.3114L18.3688 16.0626H14.5311L13.1326 12.697ZM11.9781 9.93009L9.47382 3.91089L6.96957 9.93009H11.9781Z" fill="#434343"/>
<path d="M22.4324 0.350586H26.0912V16.0782H22.4324V0.350586Z" fill="#434343"/>
<path d="M41.2604 16.0782L38.2195 11.6932H34.8534V16.0782H31.1946V0.350586H38.0406C39.4391 0.350586 40.6587 0.577116 41.6832 1.04635C42.7076 1.51559 43.5044 2.16282 44.0573 3.02039C44.6102 3.87797 44.8867 4.88117 44.8867 6.04618C44.8867 7.21118 44.6102 8.21438 44.0411 9.07196C43.4719 9.92953 42.6751 10.5606 41.6344 11.0136L45.1794 16.062H41.2441L41.2604 16.0782ZM40.3335 4.02359C39.7643 3.55436 38.9187 3.31165 37.8292 3.31165H34.8534V8.79689H37.8292C38.935 8.79689 39.7643 8.55418 40.3335 8.08494C40.9026 7.59952 41.1953 6.93611 41.1953 6.06236C41.1953 5.1886 40.9026 4.50901 40.3335 4.02359Z" fill="#434343"/>
<path d="M64.6853 0.350586L57.8393 16.0782H54.2293L47.4158 0.350586H51.3673L56.1807 11.58L61.0591 0.350586H64.6853Z" fill="#434343"/>
<path d="M75.4969 12.697H68.163L66.7645 16.0626H63.0244L70.0656 0.334961H73.6756L80.733 16.0626H76.8954L75.4969 12.697ZM74.3423 9.93009L71.8381 3.91089L69.3338 9.93009H74.3423Z" fill="#434343"/>
<path d="M84.8104 14.4763C83.5583 13.2304 82.9241 11.4667 82.9241 9.15286V0.350586H86.5829V9.02342C86.5829 11.8389 87.7537 13.2466 90.1116 13.2466C91.2499 13.2466 92.128 12.9068 92.7297 12.2272C93.3314 11.5476 93.6241 10.4797 93.6241 9.02342V0.350586H97.2341V9.15286C97.2341 11.4667 96.5999 13.2304 95.3478 14.4763C94.0956 15.7222 92.3394 16.3371 90.0791 16.3371C87.8187 16.3371 86.0625 15.7222 84.8104 14.4763Z" fill="#434343"/>
<path d="M101.842 0.35114H105.501V13.1015H113.42V16.0626H101.842V0.334961V0.35114Z" fill="#434343"/>
<path d="M117.943 3.31165H112.885V0.350586H126.659V3.31165H121.601V16.062H117.943V3.31165Z" fill="#434343"/>
</svg>
