<svg width="29" height="25" viewBox="0 0 29 25" fill="none" xmlns="http://www.w3.org/2000/svg">
<path d="M15.1862 7.98972L24.1847 23.4687C24.4081 23.862 24.9769 23.8721 25.2308 23.499L28.562 18.3864C28.6839 18.1948 28.6941 17.9527 28.5823 17.7511L18.6089 0.638459C18.3753 0.235097 17.7862 0.235097 17.5526 0.638459L14.6174 5.66031C14.5057 5.8519 14.3026 5.96283 14.0893 5.96283H7.95491C7.73147 5.96283 7.5385 6.07375 7.42679 6.26535L0.743946 17.7813C0.632226 17.9729 0.632226 18.1948 0.743946 18.3864L4.01427 24.0334C4.12599 24.225 4.32912 24.3359 4.5424 24.3359H17.6643C18.1315 24.3359 18.4261 23.8317 18.1925 23.4284L15.176 18.2553C14.9424 17.8519 14.3534 17.8519 14.1198 18.2553L11.7737 22.309C11.5401 22.7124 10.951 22.7124 10.7174 22.309L8.44241 18.3864C8.3307 18.1948 8.3307 17.9729 8.44241 17.7813L14.1198 7.9998C14.3534 7.59644 14.9424 7.59644 15.176 7.9998L15.1862 7.98972Z" fill="#FF802C"/>
</svg>
